<svg width="20" height="16" viewBox="0 0 20 16" fill="none" xmlns="http://www.w3.org/2000/svg">
<path d="M7.91665 3.83333C7.91665 4.29357 7.54355 4.66667 7.08331 4.66667H6.24998C5.78974 4.66667 5.41665 4.29357 5.41665 3.83333C5.41665 3.3731 5.78974 3 6.24998 3H7.08331C7.54355 3 7.91665 3.3731 7.91665 3.83333Z" fill="#98A2B3"/>
<path d="M10.4166 7.16667C10.8769 7.16667 11.25 6.79357 11.25 6.33333C11.25 5.8731 10.8769 5.5 10.4166 5.5H9.58331C9.12308 5.5 8.74998 5.8731 8.74998 6.33333C8.74998 6.79357 9.12308 7.16667 9.58331 7.16667H10.4166Z" fill="#98A2B3"/>
<path d="M7.91665 8.83333C7.91665 9.29357 7.54355 9.66667 7.08331 9.66667H6.24998C5.78974 9.66667 5.41665 9.29357 5.41665 8.83333C5.41665 8.3731 5.78974 8 6.24998 8H7.08331C7.54355 8 7.91665 8.3731 7.91665 8.83333Z" fill="#98A2B3"/>
<path d="M10.4166 4.66667C10.8769 4.66667 11.25 4.29357 11.25 3.83333C11.25 3.3731 10.8769 3 10.4166 3H9.58331C9.12308 3 8.74998 3.3731 8.74998 3.83333C8.74998 4.29357 9.12308 4.66667 9.58331 4.66667H10.4166Z" fill="#98A2B3"/>
<path d="M7.91665 6.33333C7.91665 6.79357 7.54355 7.16667 7.08331 7.16667H6.24998C5.78974 7.16667 5.41665 6.79357 5.41665 6.33333C5.41665 5.8731 5.78974 5.5 6.24998 5.5H7.08331C7.54355 5.5 7.91665 5.8731 7.91665 6.33333Z" fill="#98A2B3"/>
<path d="M10.4166 9.66667C10.8769 9.66667 11.25 9.29357 11.25 8.83333C11.25 8.3731 10.8769 8 10.4166 8H9.58331C9.12308 8 8.74998 8.3731 8.74998 8.83333C8.74998 9.29357 9.12308 9.66667 9.58331 9.66667H10.4166Z" fill="#98A2B3"/>
<path d="M7.91665 11.3333C7.91665 11.7936 7.54355 12.1667 7.08331 12.1667H6.24998C5.78974 12.1667 5.41665 11.7936 5.41665 11.3333C5.41665 10.8731 5.78974 10.5 6.24998 10.5H7.08331C7.54355 10.5 7.91665 10.8731 7.91665 11.3333Z" fill="#98A2B3"/>
<path d="M10.4166 12.1667C10.8769 12.1667 11.25 11.7936 11.25 11.3333C11.25 10.8731 10.8769 10.5 10.4166 10.5H9.58331C9.12308 10.5 8.74998 10.8731 8.74998 11.3333C8.74998 11.7936 9.12308 12.1667 9.58331 12.1667H10.4166Z" fill="#98A2B3"/>
<path fill-rule="evenodd" clip-rule="evenodd" d="M3.33331 2.16667C3.33331 1.24619 4.0795 0.5 4.99998 0.5H11.6666C12.5871 0.5 13.3333 1.24619 13.3333 2.16667V5.5H15.8333C16.7538 5.5 17.5 6.24619 17.5 7.16667V13.8333H18.3333C18.7935 13.8333 19.1666 14.2064 19.1666 14.6667C19.1666 15.1269 18.7935 15.5 18.3333 15.5H1.66665C1.20641 15.5 0.833313 15.1269 0.833313 14.6667C0.833313 14.2064 1.20641 13.8333 1.66665 13.8333H3.33331V2.16667ZM4.99998 13.8333H11.6666V2.16667H4.99998V13.8333ZM15.8333 10.5V9.66667H15.4166C14.9564 9.66667 14.5833 9.29357 14.5833 8.83333C14.5833 8.3731 14.9564 8 15.4166 8H15.8333V7.16667H13.3333V13.8333H15.8333V12.1667H15.4166C14.9564 12.1667 14.5833 11.7936 14.5833 11.3333C14.5833 10.8731 14.9564 10.5 15.4166 10.5H15.8333Z" fill="#98A2B3"/>
</svg>
