<svg width="20" height="20" viewBox="0 0 20 20" fill="none" xmlns="http://www.w3.org/2000/svg">
<g clip-path="url(#clip0_1634_635)">
<path fill-rule="evenodd" clip-rule="evenodd" d="M13.8065 2.74766C12.7993 1.77324 11.2007 1.77324 10.1935 2.74766C9.61749 3.30487 8.8166 3.5651 8.02309 3.45286C6.63546 3.25659 5.34222 4.19618 5.10009 5.57654C4.96162 6.3659 4.46664 7.04718 3.75871 7.42279C2.52073 8.07963 2.02676 9.59993 2.64222 10.859C2.99417 11.579 2.99417 12.4211 2.64222 13.1411C2.02676 14.4001 2.52073 15.9204 3.75871 16.5773C4.46664 16.9529 4.96162 17.6342 5.10009 18.4235C5.34222 19.8039 6.63546 20.7435 8.02309 20.5472C8.8166 20.435 9.61749 20.6952 10.1935 21.2524C11.2007 22.2268 12.7993 22.2268 13.8065 21.2524C14.3825 20.6952 15.1834 20.435 15.9769 20.5472C17.3645 20.7435 18.6578 19.8039 18.8999 18.4235C19.0384 17.6342 19.5334 16.9529 20.2413 16.5773C21.4793 15.9204 21.9732 14.4001 21.3578 13.1411C21.0058 12.4211 21.0058 11.579 21.3578 10.859C21.9732 9.59993 21.4793 8.07963 20.2413 7.42279C19.5334 7.04718 19.0384 6.3659 18.8999 5.57654C18.6578 4.19618 17.3645 3.25659 15.9769 3.45286C15.1834 3.5651 14.3825 3.30487 13.8065 2.74766ZM12 17C14.7614 17 17 14.7615 17 12C17 9.23861 14.7614 7.00003 12 7.00003C9.23857 7.00003 7 9.23861 7 12C7 14.7615 9.23857 17 12 17Z" fill="#667185"/>
</g>
<defs>
<clipPath id="clip0_1634_635">
<rect width="20" height="20" fill="white"/>
</clipPath>
</defs>
</svg>
